<?xml version="1.0" encoding="utf-8"?>
<svg x="0px" y="0px" width="250px" height="250px" viewBox="0 0 250 250" xmlns="http://www.w3.org/2000/svg" xmlns:xlink="http://www.w3.org/1999/xlink">
  <!--Generated by AMDN-->
  <g id="Help Icon">
    <path id="help icon" style="fill:#ffffff;fill-opacity:1;fill-rule:evenodd;opacity:1;stroke:none;" d="M125,0 C194.036,0,250,55.9644,250,125 C250,194.036,194.036,250,125,250 C55.9644,250,0,194.036,0,125 C0,55.9644,55.9644,0,125,0 z M73.3101,90.4038 C73.3101,83.8169,75.4248,77.1433,79.6543,70.3831 C83.8838,63.6228,90.0547,58.0239,98.167,53.5864 C106.279,49.1489,115.744,46.9302,126.56,46.9302 C136.614,46.9302,145.489,48.7849,153.185,52.4944 C160.881,56.2039,166.827,61.248,171.022,67.627 C175.217,74.0059,177.314,80.9395,177.314,88.4277 C177.314,94.3213,176.118,99.4868,173.726,103.924 C171.334,108.362,168.491,112.193,165.198,115.417 C161.904,118.641,155.993,124.066,147.465,131.693 C145.107,133.843,143.218,135.732,141.797,137.362 C140.375,138.991,139.318,140.482,138.625,141.834 C137.931,143.186,137.394,144.538,137.012,145.89 C136.631,147.242,136.059,149.617,135.296,153.014 C133.979,160.225,129.854,163.831,122.92,163.831 C119.314,163.831,116.281,162.652,113.82,160.294 C111.358,157.937,110.127,154.436,110.127,149.79 C110.127,143.966,111.029,138.922,112.832,134.657 C114.634,130.393,117.026,126.649,120.008,123.425 C122.989,120.201,127.011,116.37,132.072,111.933 C136.51,108.05,139.717,105.12,141.693,103.144 C143.669,101.168,145.333,98.9668,146.685,96.54 C148.037,94.1133,148.713,91.4785,148.713,88.6357 C148.713,83.0889,146.65,78.4087,142.525,74.5952 C138.399,70.7817,133.078,68.875,126.56,68.875 C118.933,68.875,113.317,70.7991,109.711,74.6472 C106.106,78.4954,103.055,84.1636,100.559,91.6519 C98.2017,99.4868,93.7295,103.404,87.1426,103.404 C83.2598,103.404,79.9836,102.035,77.3142,99.2961 C74.6448,96.5574,73.3101,93.5933,73.3101,90.4038 z M124.064,204.392 C119.834,204.392,116.142,203.023,112.988,200.284 C109.833,197.545,108.255,193.714,108.255,188.792 C108.255,184.423,109.781,180.749,112.832,177.767 C115.882,174.786,119.626,173.295,124.064,173.295 C128.432,173.295,132.107,174.786,135.088,177.767 C138.07,180.749,139.561,184.423,139.561,188.792 C139.561,193.645,138,197.458,134.88,200.232 C131.76,203.005,128.155,204.392,124.064,204.392 z"/>
  </g>
</svg>
